<?xml version="1.0" encoding="iso-8859-1"?>
<!-- Uploaded to: SVG Repo, www.svgrepo.com, Generator: SVG Repo Mixer Tools -->
<!DOCTYPE svg PUBLIC "-//W3C//DTD SVG 1.1//EN" "http://www.w3.org/Graphics/SVG/1.1/DTD/svg11.dtd">
<svg fill="#00e1b7" version="1.1" id="Capa_1" xmlns="http://www.w3.org/2000/svg" xmlns:xlink="http://www.w3.org/1999/xlink" 
	 width="800px" height="800px" viewBox="0 0 108.806 108.807"
	 xml:space="preserve">
<g>
	<path d="M40.626,89.192c0,1.538-1.256,2.802-2.801,2.802c-13.137,0-23.814-10.685-23.814-23.813c0-1.55,1.256-2.802,2.801-2.802
		c1.546,0,2.802,1.252,2.802,2.802c0,10.041,8.169,18.21,18.212,18.21C39.37,86.391,40.626,87.645,40.626,89.192z M105.386,107.748
		c-0.559,0.695-1.368,1.059-2.194,1.059c-0.619,0-1.231-0.205-1.745-0.615l-22.16-17.734c-4.401,4.411-10.474,7.141-17.178,7.141
		c-1.569,0-3.114-0.18-4.589-0.465c-5.821,3.961-12.619,6.067-19.691,6.067c-19.302,0-35.02-15.714-35.02-35.02
		c0-18.446,31.367-64.969,32.7-66.942c0.539-0.774,1.674-1.294,2.32-1.234c0.914,0,1.77,0.449,2.298,1.199
		c0.784,1.122,19.064,27.428,27.744,48.604c10.604,2.605,18.518,12.12,18.518,23.513c0,4.666-1.391,8.983-3.684,12.699
		l22.244,17.795C106.153,104.782,106.349,106.545,105.386,107.748z M50.711,94.621c-7.626-4.088-12.886-12.061-12.886-21.309
		c0-13.171,10.538-23.846,23.611-24.21c-6.903-15.674-18.613-33.849-23.59-41.28C27.896,23.001,8.407,55.366,8.407,68.175
		c0,16.22,13.19,29.417,29.418,29.417C42.342,97.598,46.722,96.569,50.711,94.621z M80.781,73.312
		c0-10.298-8.38-18.675-18.678-18.675c-10.299,0-18.675,8.377-18.675,18.675c0,10.299,8.376,18.677,18.675,18.677
		C72.401,91.989,80.781,83.611,80.781,73.312z"/>
</g>
</svg>