<?xml version="1.0" standalone="no"?>
<svg xmlns:xlink="http://www.w3.org/1999/xlink" id="wave" style="transform:rotate(0deg); transition: 0.3s" viewBox="0 0 1440 120" version="1.1" xmlns="http://www.w3.org/2000/svg"><defs><linearGradient id="sw-gradient-0" x1="0" x2="0" y1="1" y2="0"><stop stop-color="rgba(167.061, 248.525, 226.996, 1)" offset="0%"/><stop stop-color="rgba(174.293, 255, 233.67, 1)" offset="100%"/></linearGradient></defs><path style="transform:translate(0, 0px); opacity:1" fill="url(#sw-gradient-0)" d="M0,48L120,40C240,32,480,16,720,24C960,32,1200,64,1440,72C1680,80,1920,64,2160,52C2400,40,2640,32,2880,28C3120,24,3360,24,3600,22C3840,20,4080,16,4320,30C4560,44,4800,76,5040,82C5280,88,5520,68,5760,54C6000,40,6240,32,6480,36C6720,40,6960,56,7200,54C7440,52,7680,32,7920,38C8160,44,8400,76,8640,78C8880,80,9120,52,9360,46C9600,40,9840,56,10080,62C10320,68,10560,64,10800,64C11040,64,11280,68,11520,62C11760,56,12000,40,12240,42C12480,44,12720,64,12960,68C13200,72,13440,60,13680,60C13920,60,14160,72,14400,80C14640,88,14880,92,15120,80C15360,68,15600,40,15840,42C16080,44,16320,76,16560,80C16800,84,17040,60,17160,48L17280,36L17280,120L17160,120C17040,120,16800,120,16560,120C16320,120,16080,120,15840,120C15600,120,15360,120,15120,120C14880,120,14640,120,14400,120C14160,120,13920,120,13680,120C13440,120,13200,120,12960,120C12720,120,12480,120,12240,120C12000,120,11760,120,11520,120C11280,120,11040,120,10800,120C10560,120,10320,120,10080,120C9840,120,9600,120,9360,120C9120,120,8880,120,8640,120C8400,120,8160,120,7920,120C7680,120,7440,120,7200,120C6960,120,6720,120,6480,120C6240,120,6000,120,5760,120C5520,120,5280,120,5040,120C4800,120,4560,120,4320,120C4080,120,3840,120,3600,120C3360,120,3120,120,2880,120C2640,120,2400,120,2160,120C1920,120,1680,120,1440,120C1200,120,960,120,720,120C480,120,240,120,120,120L0,120Z"/><defs><linearGradient id="sw-gradient-1" x1="0" x2="0" y1="1" y2="0"><stop stop-color="rgba(80, 220, 183, 1)" offset="0%"/><stop stop-color="rgba(80, 220, 183, 1)" offset="100%"/></linearGradient></defs><path style="transform:translate(0, 50px); opacity:0.9" fill="url(#sw-gradient-1)" d="M0,108L120,108C240,108,480,108,720,92C960,76,1200,44,1440,26C1680,8,1920,4,2160,4C2400,4,2640,8,2880,24C3120,40,3360,68,3600,74C3840,80,4080,64,4320,66C4560,68,4800,88,5040,80C5280,72,5520,36,5760,26C6000,16,6240,32,6480,38C6720,44,6960,40,7200,36C7440,32,7680,28,7920,40C8160,52,8400,80,8640,94C8880,108,9120,108,9360,92C9600,76,9840,44,10080,44C10320,44,10560,76,10800,78C11040,80,11280,52,11520,34C11760,16,12000,8,12240,6C12480,4,12720,8,12960,18C13200,28,13440,44,13680,42C13920,40,14160,20,14400,14C14640,8,14880,16,15120,22C15360,28,15600,32,15840,46C16080,60,16320,84,16560,94C16800,104,17040,100,17160,98L17280,96L17280,120L17160,120C17040,120,16800,120,16560,120C16320,120,16080,120,15840,120C15600,120,15360,120,15120,120C14880,120,14640,120,14400,120C14160,120,13920,120,13680,120C13440,120,13200,120,12960,120C12720,120,12480,120,12240,120C12000,120,11760,120,11520,120C11280,120,11040,120,10800,120C10560,120,10320,120,10080,120C9840,120,9600,120,9360,120C9120,120,8880,120,8640,120C8400,120,8160,120,7920,120C7680,120,7440,120,7200,120C6960,120,6720,120,6480,120C6240,120,6000,120,5760,120C5520,120,5280,120,5040,120C4800,120,4560,120,4320,120C4080,120,3840,120,3600,120C3360,120,3120,120,2880,120C2640,120,2400,120,2160,120C1920,120,1680,120,1440,120C1200,120,960,120,720,120C480,120,240,120,120,120L0,120Z"/></svg>